<svg width="200" height="40" viewBox="0 0 200 40" fill="none" xmlns="http://www.w3.org/2000/svg">
<path d="M30.0781 5.6525H16.5161V10.6814V13.7491V16.3339V18.5869V23.6661H23.9163V16.344H18.323V10.6915H26.6267C27.4591 10.6915 28.2103 11.0234 28.7483 11.5665C29.2965 12.0996 29.6315 12.8539 29.6315 13.6686V26.4923V29.3186H26.779H13.8057C12.9733 29.3186 12.2221 28.9867 11.6841 28.4436C11.1359 27.9004 10.8009 27.1561 10.8009 26.3415V13.7591V13.5177V10.6915V3.21851V0H30.0781C32.9306 0 35.509 1.14659 37.387 3.00729C39.2548 4.85793 40.4222 7.42268 40.4222 10.2389V31.471V35.474V37.2442C40.4222 38.7629 39.1736 40 37.6408 40H37.1637H35.7019H10.3441C7.49161 40 4.9132 38.8534 3.03522 36.9927C1.15724 35.1421 0 32.5773 0 29.7611V10.6814H2.98446H5.705H8.98385V16.3339H5.705V29.7611C5.705 31.0184 6.22271 32.1649 7.06526 32.9997C7.90782 33.8345 9.06506 34.3475 10.334 34.3475H34.6969V10.2389C34.6969 8.98164 34.1792 7.83505 33.3367 7.00025C32.5043 6.17551 31.3572 5.6525 30.0781 5.6525Z" fill="#22AD01"/>
<path d="M182.067 13.6688C179.448 11.8685 176.189 11.2248 172.91 11.9188C168.423 12.8743 164.85 16.5253 164.018 21.0211C163.378 24.4508 164.292 27.9409 166.515 30.5861C168.738 33.2313 172.007 34.7501 175.468 34.7501C177.773 34.7501 180.006 34.0762 181.884 32.8391C182.178 33.6839 182.98 34.2975 183.934 34.2975H187.223V12.0898H184.635C183.508 12.0797 182.534 12.7335 182.067 13.6688ZM170.108 26.2814C169.489 25.3058 169.205 24.2597 169.246 23.083C169.296 21.4234 170.058 19.8041 171.327 18.6575C172.524 17.5813 173.925 17.0583 175.6 17.0583C176.758 17.0583 177.783 17.3299 178.747 17.8831C180.788 19.0699 181.782 20.8501 181.782 23.3042C181.782 24.9236 181.183 26.3015 179.955 27.5285C178.605 28.8662 177.042 29.4596 175.154 29.3188C174.362 29.2585 173.57 29.0473 172.849 28.6952C171.672 28.132 170.768 27.3374 170.108 26.2814Z" fill="#15362B"/>
<path d="M75.8044 13.1358C73.9671 12.1501 71.9774 11.6573 69.8761 11.6573C68.0996 11.6573 66.445 12.0395 64.9325 12.8039C64.5873 12.9749 64.2625 13.166 63.9478 13.3671V7.4531C63.9478 6.26628 62.9733 5.31078 61.7856 5.31078H58.4255V34.2975H61.6841C62.618 34.2975 63.4098 33.7141 63.7143 32.8894C64.161 33.181 64.6381 33.4425 65.1558 33.6739C66.7394 34.398 68.4245 34.7601 70.1502 34.7601C73.6321 34.7601 76.6876 33.3218 79.2254 30.4956C81.012 28.5142 81.9155 26.0299 81.9155 23.1031C81.9155 21.001 81.3572 19.0397 80.2507 17.2695C79.1442 15.5094 77.652 14.1214 75.8044 13.1358ZM75.6319 26.0903C75.0532 27.1363 74.2817 27.9208 73.2768 28.5142C72.3226 29.0674 71.3074 29.3389 70.1908 29.3389C69.0234 29.3389 67.9575 29.0774 66.9729 28.5645C64.8411 27.3978 63.8463 25.7382 63.8463 23.3344C63.8463 21.514 64.4147 20.0455 65.5923 18.8285C66.7495 17.6316 68.191 17.0483 70.0081 17.0483C71.8251 17.0483 73.3072 17.6216 74.5558 18.7883C75.7841 19.9349 76.3729 21.3631 76.383 23.1433C76.383 24.1893 76.1191 25.2052 75.6319 26.0903Z" fill="#15362B"/>
<path d="M99.3533 11.6572C97.2418 11.6572 95.2623 12.1903 93.4655 13.2363C91.6688 14.2823 90.2374 15.7105 89.2122 17.4907C88.1869 19.271 87.6692 21.2323 87.6692 23.3142C87.6692 25.366 88.2174 27.2971 89.2832 29.0573C90.5014 31.0588 92.2068 32.5976 94.3487 33.6336C95.5669 34.227 96.8662 34.5891 98.2163 34.7098C98.6021 34.7399 98.9777 34.76 99.3533 34.76C101.444 34.76 103.414 34.227 105.19 33.1609C107.2 31.964 108.743 30.2642 109.799 28.1219C110.428 26.8345 110.804 25.4566 110.905 24.0183C111.159 20.5483 110.022 17.541 107.505 15.0568C105.211 12.7937 102.47 11.6572 99.3533 11.6572ZM105.403 23.0628C105.403 24.1993 105.139 25.2353 104.612 26.2209C103.454 28.3532 101.779 29.3389 99.3533 29.3389C97.8103 29.3389 96.3485 28.7958 95.242 27.8C93.8208 26.5227 93.1509 24.9939 93.1915 23.1131C93.2118 22.2883 93.3945 21.4535 93.7295 20.7193C94.2878 19.4621 95.11 18.5368 96.247 17.883C97.2113 17.3298 98.2265 17.0583 99.3533 17.0583C100.957 17.0583 102.348 17.6316 103.596 18.7983C104.815 19.9449 105.403 21.3429 105.403 23.0628Z" fill="#15362B"/>
<path d="M127.471 11.6572C125.623 11.6572 123.989 12.15 122.568 13.1256C122.192 12.5021 121.502 12.0796 120.71 12.0796H117.451V34.2873H122.984V22.6705C122.984 21.705 123.035 20.84 123.136 20.1259C123.288 19.281 123.765 18.5871 124.638 17.9735C125.491 17.3499 126.374 17.0583 127.359 17.0583C129.075 17.0583 130.303 17.6517 131.227 18.919C131.805 19.7236 132.1 20.9808 132.1 22.6605V32.135C132.1 33.3218 133.074 34.2773 134.262 34.2773H137.622V22.6605C137.622 19.5627 136.911 17.1186 135.51 15.3887C133.48 12.9144 130.77 11.6572 127.471 11.6572Z" fill="#15362B"/>
<path d="M194.468 14.2218V34.2871H197.828C199.025 34.2871 199.99 33.3216 199.99 32.1448V12.0795H196.63C195.442 12.0795 194.468 13.0349 194.468 14.2218Z" fill="#15362B"/>
<path d="M197.889 5.48152H195.168C194.782 5.48152 194.468 5.16973 194.468 4.78753V2.09203C194.468 0.935379 195.412 0 196.579 0H200V3.38949C199.99 4.54614 199.056 5.48152 197.889 5.48152Z" fill="#15362B"/>
<path d="M156.992 22.7904C155.602 21.9456 154.028 21.2616 152.272 20.7487C152.12 20.6984 151.937 20.6481 151.744 20.5878C151.551 20.5375 151.348 20.4872 151.135 20.4369C150.688 20.276 150.272 20.0647 149.876 19.7932C149.48 19.5216 149.298 19.1394 149.328 18.6466V18.6064C149.328 18.0129 149.521 17.5603 149.917 17.2586C150.313 16.9569 150.79 16.806 151.369 16.806C151.866 16.806 152.302 16.9368 152.688 17.1983C152.79 17.2687 152.871 17.3391 152.952 17.4296C153.257 17.7816 153.744 17.9224 154.17 17.7313L158.028 15.9913C157.672 15.1364 157.114 14.362 156.333 13.678C154.891 12.3906 153.267 11.7469 151.46 11.7469C149.541 11.7469 147.846 12.3604 146.354 13.5774C144.862 14.7944 144.11 16.4037 144.11 18.4052C144.11 19.3104 144.283 20.1452 144.638 20.8995C144.994 21.6539 145.521 22.3278 146.232 22.9212C146.466 23.1324 146.699 23.3034 146.922 23.4442C147.146 23.585 147.359 23.7057 147.572 23.8163C147.836 23.9471 148.1 24.0678 148.354 24.1683C148.618 24.2689 148.892 24.3796 149.176 24.4801L149.643 24.6411C149.805 24.6913 149.968 24.7416 150.15 24.7919C150.364 24.8724 150.577 24.9428 150.8 25.0031C151.023 25.0635 151.257 25.154 151.49 25.2546C152.089 25.4658 152.637 25.7374 153.125 26.0894C153.612 26.4414 153.856 26.9443 153.856 27.588C153.856 28.2619 153.602 28.7748 153.104 29.1269C152.607 29.4789 152.039 29.6499 151.409 29.6499C150.648 29.6499 150.039 29.4185 149.562 28.9458C149.511 28.8955 149.45 28.8352 149.409 28.7748C148.871 28.1613 147.765 27.7992 146.963 27.9702L143.491 28.7245C143.806 30.2533 144.527 31.5508 145.653 32.5968C147.135 33.9747 148.993 34.6587 151.216 34.6587C151.429 34.6587 151.632 34.6486 151.846 34.6184L152.475 34.538C153.287 34.377 154.079 34.1256 154.85 33.7635C155.622 33.4014 156.302 32.9589 156.871 32.4359C157.601 31.7318 158.15 30.9473 158.525 30.0823C158.891 29.2174 159.073 28.2719 159.073 27.2561C159.083 25.1238 158.383 23.6252 156.992 22.7904Z" fill="#15362B"/>
</svg>
